<svg width="111" height="40" viewBox="0 0 111 40" fill="none" xmlns="http://www.w3.org/2000/svg">
<g clip-path="url(#clip0_1128_571)">
<path d="M47.2326 33.1636C47.3963 31.2279 47.7031 29.307 48.1503 27.4167C48.6105 25.4815 49.232 23.5882 50.008 21.7567C50.803 19.8708 51.7368 18.0465 52.8017 16.2988C53.8939 14.5075 55.1427 12.8163 56.5332 11.2452H43.5961V6.66064H62.1548V10.6509C59.2714 13.8213 56.9474 17.4583 55.2819 21.407C53.7153 25.1423 52.8018 29.119 52.5813 33.1636H47.2326Z" fill="#E43226"/>
<path d="M79.3228 33.1636V21.2675H68.9852V33.1636H63.4445V6.66064H68.9913V16.6384H79.3288V6.66064H84.912V33.1636H79.3228Z" fill="#E43226"/>
<path d="M87.1074 11.4858V6.65662H92.2944V11.4858H87.1074ZM87.1074 33.1616V13.5254H92.2944V33.1636L87.1074 33.1616Z" fill="#E43226"/>
<path d="M105.743 24.2046V24.7949C105.743 26.0185 105.496 26.9619 105.003 27.6249C104.51 28.2879 103.745 28.6201 102.709 28.6215C101.644 28.6215 100.879 28.2846 100.414 27.6107C99.9494 26.9369 99.7162 25.972 99.7149 24.7161V16.6526H110.572V12.9797H99.7149V7.67139H94.6067V25.2335C94.6011 26.2605 94.7489 27.2825 95.0454 28.2657C95.3241 29.1987 95.8075 30.0578 96.4604 30.7803C97.1559 31.5285 98.0075 32.1144 98.9548 32.4965C99.9655 32.921 101.189 33.1333 102.626 33.1333C103.848 33.1633 105.063 32.9467 106.2 32.4965C107.143 32.108 107.988 31.515 108.674 30.7601C109.323 30.0312 109.813 29.1747 110.111 28.2455C110.419 27.2872 110.575 26.2865 110.572 25.28V24.2107L105.743 24.2046Z" fill="#E43226"/>
<path d="M0.0586563 21.5482C0.0445063 21.3643 0.0323777 21.1804 0.024292 20.9944C0.0323777 21.1804 0.0445063 21.3643 0.0586563 21.5482Z" fill="white"/>
<path d="M0.123309 17.8005C0.0950086 18.0734 0.0707514 18.3483 0.0505371 18.6233C0.0707514 18.3443 0.0929872 18.0694 0.123309 17.8005Z" fill="white"/>
<path d="M0.0142036 19.2946C0.0142036 19.4967 0.0020752 19.715 0.0020752 19.9273C0.0020752 19.715 0.00813937 19.5048 0.0142036 19.2946Z" fill="white"/>
<path d="M0.238483 16.9354C0.198054 17.2002 0.161669 17.4671 0.131348 17.7339C0.161669 17.4671 0.198054 17.1942 0.238483 16.9354Z" fill="white"/>
<path d="M0.375993 16.1835C0.331521 16.4119 0.289071 16.6423 0.252686 16.8748C0.28705 16.6343 0.3295 16.4038 0.375993 16.1835Z" fill="white"/>
<path d="M1.48766 12.4498C1.37446 12.7268 1.26935 13.0057 1.16827 13.2887C1.26935 13.0057 1.37446 12.7268 1.48766 12.4498Z" fill="white"/>
<path d="M32.3712 4.28357H7.65319C5.21764 6.20062 3.26069 8.65719 1.93658 11.4596H23.8024L14.2774 39.1673C17.1765 40.0292 20.2327 40.2255 23.2182 39.7414L34.3947 6.117C33.7617 5.4615 33.0858 4.84899 32.3712 4.28357Z" fill="white"/>
<path d="M0.697302 14.7909C0.634638 15.0274 0.571974 15.2639 0.517395 15.5024C0.578038 15.2639 0.634638 15.0274 0.697302 14.7909Z" fill="white"/>
<path d="M0.109167 22.1022C0.109167 22.0698 0.109167 22.0375 0.0990601 22.0051C0.103103 22.0456 0.105125 22.0698 0.109167 22.1022Z" fill="white"/>
<path d="M0.0141499 20.7155C0.0141499 20.5133 0.00202143 20.297 0 20.0868C0.00202143 20.297 0.00606422 20.5072 0.0141499 20.7155Z" fill="white"/>
<path d="M32.3712 4.28337C29.4258 1.95905 25.8836 0.514167 22.1528 0.115192L22.0053 0.099021C21.8658 0.084871 21.7243 0.0727424 21.5848 0.0626353C21.3928 0.0484853 21.1987 0.0343356 21.0047 0.0242284H20.7459C20.5256 0.0242284 20.3053 0.0100781 20.0829 0.00805664H20.0202C19.7352 0.00805664 19.4502 0.00805667 19.1672 0.0262495C14.9771 0.19981 10.9483 1.6894 7.65314 4.28337H32.3712Z" fill="#E43226"/>
<path d="M34.4047 6.07629L34.3946 6.11066C36.9305 8.73762 38.6988 12.0086 39.5078 15.5691C40.3169 19.1295 40.1359 22.8435 38.9844 26.3084C37.8329 29.7732 35.7549 32.8568 32.9756 35.2247C30.1964 37.5926 26.822 39.1545 23.2182 39.7411L23.1919 39.818C26.8146 39.2409 30.2093 37.6801 33.0056 35.3058C35.8019 32.9315 37.8925 29.8349 39.0494 26.3537C40.2062 22.8725 40.3849 19.1405 39.5658 15.5648C38.7468 11.989 36.9615 8.70685 34.4047 6.07629Z" fill="#E43226"/>
<path d="M39.996 20C40.0042 14.8201 37.9952 9.84065 34.3946 6.11682L23.2181 39.7412C27.9013 38.9743 32.1595 36.568 35.2327 32.952C38.3059 29.336 39.9941 24.7455 39.996 20Z" fill="#E43226"/>
<path d="M0.098961 22.0051C0.084811 21.8535 0.0706613 21.7018 0.0585327 21.5482C0.0706613 21.7018 0.084811 21.8535 0.098961 22.0051Z" fill="#F7971D"/>
<path d="M0.0243896 20.9947C0.0243896 20.9017 0.0243894 20.8087 0.0142822 20.7157C0.0163037 20.8087 0.0203467 20.9017 0.0243896 20.9947Z" fill="#F7971D"/>
<path d="M0.109131 22.1022C0.518143 26.0323 2.07951 29.7539 4.59707 32.7995C7.11463 35.845 10.4761 38.0786 14.2591 39.2196L14.2753 39.1671C10.4946 38.0362 7.13256 35.8129 4.61199 32.7765C2.09142 29.7402 0.524808 26.0264 0.109131 22.1022Z" fill="#F7971D"/>
<path d="M1.92434 11.4615C0.654891 14.1375 -0.00249794 17.0626 -5.42472e-05 20.0243V20.093C-5.42472e-05 20.2952 -5.4309e-05 20.5135 0.0140957 20.7217C0.0140957 20.8147 0.0140959 20.9077 0.0242031 21.0007C0.0242031 21.1866 0.0444173 21.3706 0.0585673 21.5545C0.0727173 21.7385 0.0848457 21.8598 0.0989957 22.0114C0.0989957 22.0437 0.0989959 22.0761 0.109103 22.1084C0.526065 26.0318 2.09349 29.7445 4.61436 32.7797C7.13524 35.8149 10.4971 38.0372 14.2773 39.1672L23.8023 11.4615H1.92434Z" fill="#F7971D"/>
</g>
<defs>
<clipPath id="clip0_1128_571">
<rect width="111" height="40" fill="white"/>
</clipPath>
</defs>
</svg>
